<svg xmlns="http://www.w3.org/2000/svg" xmlns:xlink="http://www.w3.org/1999/xlink" version="1.1" x="0px" y="0px" viewBox="0 0 24 25" enable-background="new 0 0 24 24" xml:space="preserve"><g><path d="M4,2h6v4c0,1.104,0.896,2,2,2h4v2h2V6c0-0.529-0.211-1.039-0.586-1.414l-4-4C13.039,0.211,12.529,0,12,0H4   C2.896,0,2,0.896,2,2v16c0,1.104,0.896,2,2,2h7v-2H4V2z M12,2l4,4h-4V2z"/><path d="M21,17v-2c0-2.209-1.791-4-4-4s-4,1.791-4,4v2c-0.553,0-1,0.447-1,1v5c0,0.553,0.447,1,1,1h8c0.553,0,1-0.447,1-1v-5   C22,17.447,21.553,17,21,17z M19,17h-4v-2c0-1.104,0.897-2,2-2s2,0.896,2,2V17z"/></g></svg>
