<svg width="24" height="24" viewBox="0 0 24 24" fill="none" xmlns="http://www.w3.org/2000/svg">
<path d="M21 2L19 4M19 4L22 7L18.5 10.5L15.5 7.5M19 4L15.5 7.5M11.39 11.61C11.9063 12.1195 12.3168 12.726 12.5978 13.3948C12.8787 14.0635 13.0246 14.7813 13.027 15.5066C13.0295 16.232 12.8884 16.9507 12.6119 17.6213C12.3354 18.2919 11.9291 18.9012 11.4161 19.4141C10.9032 19.9271 10.2939 20.3334 9.6233 20.6099C8.95268 20.8864 8.234 21.0275 7.50863 21.025C6.78327 21.0226 6.06554 20.8767 5.39679 20.5958C4.72804 20.3148 4.12147 19.9043 3.612 19.388C2.61013 18.3507 2.05576 16.9614 2.06829 15.5193C2.08082 14.0772 2.65925 12.6977 3.679 11.678C4.69874 10.6583 6.07821 10.0798 7.52029 10.0673C8.96238 10.0548 10.3517 10.6091 11.389 11.611L11.39 11.61ZM11.39 11.61L15.5 7.5" stroke="currentColor" stroke-width="2" stroke-linecap="round" stroke-linejoin="round"/>
<path d="M2 2L21.5 21.5" stroke="currentColor" stroke-width="2"/>
</svg>
